<?xml version="1.0" encoding="UTF-8" standalone="no"?>
<!-- Created with Inkscape (http://www.inkscape.org/) -->

<svg
   width="100.32482mm"
   height="181.22566mm"
   viewBox="0 0 100.32482 181.22566"
   version="1.1"
   id="svg5"
   inkscape:export-filename="cursed-mario.png"
   inkscape:export-xdpi="96"
   inkscape:export-ydpi="96"
   inkscape:version="1.2.2 (b0a8486541, 2022-12-01)"
   sodipodi:docname="cursed-mario_inkscape_file.svg"
   xmlns:inkscape="http://www.inkscape.org/namespaces/inkscape"
   xmlns:sodipodi="http://sodipodi.sourceforge.net/DTD/sodipodi-0.dtd"
   xmlns="http://www.w3.org/2000/svg"
   xmlns:svg="http://www.w3.org/2000/svg">
  <sodipodi:namedview
     id="namedview7"
     pagecolor="#505050"
     bordercolor="#eeeeee"
     borderopacity="1"
     inkscape:showpageshadow="0"
     inkscape:pageopacity="0"
     inkscape:pagecheckerboard="0"
     inkscape:deskcolor="#505050"
     inkscape:document-units="mm"
     showgrid="false"
     inkscape:zoom="0.57929786"
     inkscape:cx="650.78783"
     inkscape:cy="363.37093"
     inkscape:window-width="1918"
     inkscape:window-height="1174"
     inkscape:window-x="0"
     inkscape:window-y="24"
     inkscape:window-maximized="1"
     inkscape:current-layer="g4125" />
  <defs
     id="defs2" />
  <g
     inkscape:label="Layer 1"
     inkscape:groupmode="layer"
     id="layer1"
     transform="translate(-58.113376,-25.23533)">
    <g
       id="g4065"
       inkscape:label="body"
       transform="translate(1.2459127,-2.032724)"
       style="stroke-width:4.1;stroke-dasharray:none"
       inkscape:export-filename="cursed-mario.png"
       inkscape:export-xdpi="96"
       inkscape:export-ydpi="96">
      <ellipse
         style="fill:#ffffff;fill-opacity:1;stroke:#000000;stroke-width:4.1049;stroke-dasharray:none;stroke-opacity:1"
         id="ellipse1685"
         cx="112.8521"
         cy="174.56461"
         rx="10.056355"
         ry="9.7648554"
         inkscape:label="right glove"
         transform="matrix(0.97033733,-0.24175498,0.17421291,0.98470801,0,0)" />
      <path
         id="path1740"
         style="fill:#a91010;stroke:#000000;stroke-width:4.1;stroke-dasharray:none"
         inkscape:label="red shirt"
         d="m 138.8438,156.79648 c 0,8.29809 -6.90833,8.67552 -13.5296,15.6339 -6.62128,6.95839 -15.18502,11.84225 -22.9549,11.84225 -7.769882,0 -13.471242,-10.38566 -20.165148,-18.66698 -6.693911,-8.2813 -16.181482,-16.06046 -15.890936,-19.06688 1.916831,-19.8344 17.137578,-34.52942 36.056084,-34.52942 9.45925,0 23.76076,1.9987 30.51707,11.12096 6.75631,9.12226 5.96743,25.36808 5.96743,33.66617 z"
         sodipodi:nodetypes="ssssssss" />
      <path
         id="path1663"
         style="fill:#8d5000;stroke:#000000;stroke-width:4.1;stroke-dasharray:none"
         inkscape:label="left foot"
         d="m 76.557023,191.32796 c -10e-7,8.07891 -0.70257,15.11576 -6.858701,15.11576 -3.078065,0 -6.494714,-0.87107 -8.511863,-3.51824 -2.017149,-2.64717 -2.268995,-8.83511 -2.268996,-12.87457 -10e-7,-8.07891 6.474035,-11.93473 12.630165,-11.93473 6.15613,0 5.009394,5.13288 5.009395,13.21178 z"
         sodipodi:nodetypes="ssssss" />
      <path
         id="path1533"
         style="fill:#0f2cac;fill-opacity:1;stroke:#000000;stroke-width:4.1;stroke-dasharray:none;stroke-opacity:1"
         d="m 95.720748,128.98415 c -9.369669,10.60363 -20.818109,17.85325 -14.740574,26.40809 3.316679,4.66863 -3.17296,9.78344 -12.28841,18.069 -4.925064,4.47668 -9.820181,13.832 -5.687779,19.05553 4.256197,5.38 18.913036,-2.35481 24.555443,-4.57101 12.741992,-5.00474 28.949412,-8.76264 40.348902,2.76526 11.57917,-2.58524 14.16984,-24.02197 10.75761,-35.34824 -9.10243,-13.88983 -23.82413,-1.66312 -28.72104,-21.69545 0,0 1.37036,-21.73876 -5.60756,-22.6549 -5.938992,-0.77972 -4.18406,12.95543 -8.616592,17.97172 z"
         sodipodi:nodetypes="ssssssssss"
         inkscape:label="bottom layer overalls" />
      <ellipse
         style="fill:#ffffff;fill-opacity:1;stroke:#000000;stroke-width:4.1049;stroke-dasharray:none;stroke-opacity:1"
         id="path1605"
         cx="54.729095"
         cy="171.94142"
         rx="12.353208"
         ry="11.995131"
         inkscape:label="left glove"
         transform="matrix(0.97033733,-0.24175498,0.17421291,0.98470801,0,0)" />
      <ellipse
         style="fill:#8d5000;fill-opacity:1;stroke:#000000;stroke-width:4.10903;stroke-dasharray:none;stroke-opacity:1"
         id="path1391"
         cx="191.56743"
         cy="145.55295"
         rx="11.784285"
         ry="17.484047"
         transform="matrix(0.9672445,0.25384656,-0.34327058,0.93923656,0,0)"
         inkscape:label="right foot" />
      <ellipse
         style="fill:#f0db59;fill-opacity:1;stroke:#000000;stroke-width:4.1;stroke-dasharray:none;stroke-opacity:1"
         id="path3996"
         cx="111.34165"
         cy="148.68665"
         rx="5.4971261"
         ry="5.4681463" />
      <ellipse
         style="fill:#f0db59;fill-opacity:1;stroke:#000000;stroke-width:4.1;stroke-dasharray:none;stroke-opacity:1"
         id="ellipse3998"
         cx="129.71281"
         cy="152.06506"
         rx="4.8881917"
         ry="4.8768897" />
    </g>
    <g
       id="g4125"
       inkscape:label="head"
       style="fill:#f5c287;fill-opacity:1;stroke-width:4.1;stroke-dasharray:none"
       transform="translate(3.5394024,20.502409)">
      <path
         id="path4247"
         style="fill:#a91010;fill-opacity:1;stroke:#000000;stroke-width:4.1;stroke-dasharray:none"
         inkscape:label="shell"
         transform="translate(1.9344458,-0.88522413)"
         d="m 137.63787,44.390137 c 0,16.674939 -15.53666,30.192647 -34.70209,30.192644 -19.16543,-2e-6 -43.25955,-2.468865 -43.25955,-19.1438 0,-8.337468 6.498942,-20.311723 15.393563,-30.201612 8.894621,-9.889889 24.864328,-18.7375825 34.357847,-17.4331199 8.63364,1.1863108 14.94193,4.3321589 22.53807,9.2202579 7.72997,4.974216 5.67216,19.028161 5.67216,27.36563 z"
         sodipodi:nodetypes="sssssss" />
      <path
         id="path4119"
         style="stroke:#000000;stroke-width:4.1;stroke-dasharray:none"
         inkscape:label="main face shape"
         d="m 142.67303,61.865418 c 0,9.605842 -2.99009,26.66269 -9.25567,32.957687 -6.26558,6.294995 -25.70837,6.778825 -34.777521,4.188733 C 80.253084,93.760703 74.13227,86.154556 74.54125,66.947228 74.731303,58.021551 77.152234,54.298323 81.983252,50.852673 86.81427,47.407023 96.383268,39.18992 104.63989,34.521985 c 8.32291,-4.705411 24.54471,-11.646974 30.81029,-5.351978 6.26558,6.294997 7.22285,23.089569 7.22285,32.695411 z"
         sodipodi:nodetypes="ssssssss" />
      <path
         id="path4121"
         style="stroke:#000000;stroke-width:4.1;stroke-linecap:round;stroke-dasharray:none"
         inkscape:label="nose"
         d="m 132.47773,56.525111 c 11.6343,-1e-6 18.58882,3.527264 18.58882,9.864766 0,6.337502 -9.43147,11.475063 -21.06577,11.475062 -11.6343,10e-7 -21.06577,-5.13756 -21.06577,-11.475062"
         sodipodi:nodetypes="cssc" />
      <path
         id="path4181"
         style="fill:#f5c287;stroke:#000000;stroke-width:4.1;stroke-linecap:round;stroke-dasharray:none"
         d="m 77.965869,81.760463 c -3.067564,0.719304 -9.312295,-0.169835 -12.245951,-3.308681 -2.933655,-3.138847 -4.817327,-7.19202 -4.817327,-10.455832 0,-6.527626 2.94458,-13.007419 9.245988,-12.966797 5.195949,0.0335 9.140787,6.4459 10.955894,12.920216"
         inkscape:label="ear"
         sodipodi:nodetypes="csssc" />
      <g
         id="g12617"
         inkscape:label="dick-logo"
         transform="translate(11.163003,2.0102373)">
        <path
           style="fill:#fde9e9;fill-opacity:1;stroke:#000000;stroke-width:0.711994;stroke-linecap:round;stroke-dasharray:none;stroke-opacity:1"
           d="m 101.67796,18.976551 c -1.33171,-1.094502 -4.926821,2.281164 -2.83897,3.781936 1.137002,0.817292 4.39598,1.646219 5.80305,0.615889 0.49091,-0.359474 0.73722,-0.746313 0.99123,-1.299141 0.006,-0.01339 0.13288,-0.504272 -0.0962,-0.471541 -0.17614,0.02516 0.34952,1.34828 0.42345,1.472359 0.68264,1.145818 1.77959,1.663914 3.01219,2.020885 0.2809,0.08135 0.97271,0.227507 1.27994,0.1251 1.54453,-0.514824 1.63724,-1.776357 0.9335,-2.973583 -0.23647,-0.402278 -0.59415,-0.970172 -0.79876,-0.76505 0.63778,-0.524471 2.08412,-1.561667 2.76199,-2.237405 1.27825,-1.274241 1.87363,-1.986147 2.87746,-3.531735 0.54167,-0.834001 1.33731,-2.102919 1.34731,-3.194918 0.009,-1.024829 -3.37967,-0.216243 -3.7051,-0.125103 -2.84659,0.797267 -5.25282,1.92227 -7.52568,3.81081 -0.66387,0.551617 -1.31071,1.125561 -1.92472,1.732185 -0.19078,0.188473 -0.39639,0.390348 -0.48119,0.644758 -0.0663,0.198643 0.0385,0.417007 -0.80843,0.736178 -0.99444,-0.0401 -1.09813,-0.21592 -1.25107,-0.341624 z"
           id="path12613"
           sodipodi:nodetypes="csscscssscsscsscccc" />
        <path
           style="fill:#fde9e9;fill-opacity:1;stroke:#000000;stroke-width:0.711994;stroke-linecap:round;stroke-dasharray:none;stroke-opacity:1"
           d="m 121.54114,14.684578 c 0.78119,0.637289 0.93766,1.522447 2.00171,1.674445"
           id="path12742"
           transform="translate(-8.1800894,-1.1740345)" />
        <path
           style="fill:#fde9e9;fill-opacity:1;stroke:#000000;stroke-width:0.711994;stroke-linecap:round;stroke-dasharray:none;stroke-opacity:1"
           d="m 124.77467,13.529789 c -1.14814,0.898517 -0.82109,0.494802 -1.20295,0.991195"
           id="path12744"
           transform="translate(-8.1800894,-1.1740345)" />
        <path
           style="fill:#fde9e9;fill-opacity:1;stroke:#000000;stroke-width:0.711994;stroke-linecap:round;stroke-dasharray:none;stroke-opacity:1"
           d="m 108.12579,21.459346 c -0.47697,-0.381683 -1.05392,-0.721723 -1.53015,-1.058556"
           id="path12746"
           transform="translate(-8.1800894,-1.1740345)" />
        <path
           style="fill:#fde9e9;fill-opacity:1;stroke:#000000;stroke-width:0.711994;stroke-linecap:round;stroke-dasharray:none;stroke-opacity:1"
           d="m 108.37601,22.440921 c -0.51647,0.612679 -1.03294,1.225359 -1.54941,1.838039"
           id="path12748"
           transform="translate(-8.1800894,-1.1740345)" />
        <path
           style="fill:#fde9e9;fill-opacity:1;stroke:#000000;stroke-width:0.711994;stroke-linecap:round;stroke-dasharray:none;stroke-opacity:1"
           d="m 110.23337,23.740059 c 0.0994,0.333605 0.19889,0.667211 0.29833,1.000816"
           id="path12750"
           transform="translate(-8.1800894,-1.1740345)" />
        <path
           style="fill:#fde9e9;fill-opacity:1;stroke:#000000;stroke-width:0.711994;stroke-linecap:round;stroke-dasharray:none;stroke-opacity:1"
           d="m 118.29797,23.711191 c 0.76027,-0.0802 1.52053,-0.160391 2.2808,-0.240586"
           id="path12752"
           transform="translate(-8.1800894,-1.1740345)" />
        <path
           style="fill:#fde9e9;fill-opacity:1;stroke:#000000;stroke-width:0.711994;stroke-linecap:round;stroke-dasharray:none;stroke-opacity:1"
           d="m 117.80716,24.904472 c 0.31759,0.30153 0.63517,0.603057 0.95275,0.904587"
           id="path12754"
           transform="translate(-8.1800894,-1.1740345)" />
      </g>
    </g>
    <g
       id="g4245"
       inkscape:label="eyes"
       transform="translate(5.4738482,19.617185)"
       style="fill:#000000;fill-opacity:1">
      <ellipse
         style="fill:#000000;fill-opacity:1;stroke:#000000;stroke-width:2.13334;stroke-dasharray:none;stroke-opacity:1"
         id="path4239"
         cx="114.54245"
         cy="52.63578"
         rx="3.6721611"
         ry="8.9833345" />
      <ellipse
         style="fill:#000000;fill-opacity:1;stroke:#000000;stroke-width:1.80768;stroke-dasharray:none;stroke-opacity:1"
         id="path4241"
         cx="131.0508"
         cy="50.37355"
         rx="3.4907312"
         ry="7.4413009" />
    </g>
    <path
       style="color:#000000;fill:#000000;fill-opacity:1;stroke-linecap:round;-inkscape-stroke:none"
       d="m 150.59766,22.146484 c -3.27449,0.476318 -15.18194,1.65901 -19.5,2.388672 l 0.14648,-0.02344 c -19.75343,2.67168 -19.34957,1.831774 -32.095703,6.564453 a 4.4767499,4.4767499 0 0 0 -2.638671,5.753906 4.4767499,4.4767499 0 0 0 5.755864,2.638672 c 12.53431,-4.65403 10.16978,-3.377882 30.17773,-6.083984 l 0.0742,-0.0098 0.0723,-0.01172 c 3.04425,-0.514413 15.18203,-1.756909 19.29688,-2.355469 a 4.4767499,4.4767499 0 0 0 3.78515,-5.074218 4.4767499,4.4767499 0 0 0 -5.07421,-3.78711 z"
       id="path4406"
       inkscape:label="flap"
       transform="translate(2.7197156,20.666335)" />
    <g
       id="g11662"
       inkscape:label="mouth"
       transform="matrix(0.82516201,0,0.16479825,0.82516201,5.4190378,18.603457)">
      <path
         style="fill:#e6e686;fill-opacity:1;stroke:#000000;stroke-width:0.423333;stroke-linecap:round;stroke-dasharray:none;stroke-opacity:1"
         d="m 103.09645,98.419345 c -1.61228,5.517015 3.00708,13.056415 7.64113,15.164175 3.94184,2.71533 12.23279,3.16044 18.30034,1.16582 3.03378,-0.99731 4.56418,-0.60603 7.20936,-2.36913 2.64517,-1.76311 3.7606,-6.64331 5.40382,-8.89775 -12.17735,0.87441 -29.34233,0.83772 -38.55465,-5.063115 z"
         id="path4462"
         sodipodi:nodetypes="ccsscc" />
      <path
         style="fill:#e6e686;fill-opacity:1;stroke:#000000;stroke-width:0.423333;stroke-linecap:round;stroke-dasharray:none;stroke-opacity:1"
         d="m 109.30944,111.74749 c 0.64169,-0.1 1.24906,-0.3455 1.87857,-0.49978 0.4311,-0.10566 0.56287,-0.0924 0.56012,-0.0603 -0.0247,0.28875 -0.68389,0.41432 -0.5515,0.67212 0.12201,0.23759 1.53753,-0.61814 1.801,-0.42223 0.19857,0.14764 -0.14397,0.57909 0.0431,0.74106 0.45199,0.39133 2.06851,-0.41876 1.35292,0.51701"
         id="path11656" />
      <path
         style="fill:none;fill-opacity:1;stroke:#000000;stroke-width:0.45286;stroke-linecap:round;stroke-dasharray:none;stroke-opacity:1"
         d="m 106.6585,101.4563 c -0.27057,0.53803 -1.55912,2.50122 0.23784,2.31506 0.74889,-0.0776 1.435,-0.40242 2.15054,-0.60877 0.26563,-0.0766 0.58173,-0.39924 0.79283,-0.24009 0.2566,0.19347 -0.64937,1.86018 -0.0298,2.00639 0.95993,0.22651 3.41607,-1.1809 3.82539,-0.77169 0.15224,0.15221 -0.74327,1.41006 -0.67391,1.50908 0.1073,0.15312 0.78396,-0.1141 1.20906,-0.25723 0.4322,-0.14551 0.85638,-0.30842 1.28835,-0.45444 0.27839,-0.0941 0.55241,-0.20308 0.84237,-0.2658 2.16238,-0.46773 -0.54856,1.59445 0.78292,1.33759 1.13818,-0.21957 2.72758,-1.04146 3.88484,-0.99462 0.97486,0.0395 0.48936,1.20863 1.14959,1.269 0.70394,0.0644 1.81793,-0.36841 2.35866,-0.53161 0.28829,-0.087 0.88099,-0.33894 1.23879,-0.21436 0.27816,0.0968 0.31292,0.61645 0.42615,0.75454 1.15897,1.4135 2.45374,0.10982 3.78575,-0.12862 0.24304,-0.0435 0.44377,0.19246 0.62435,0.25724 0.1606,0.0576 0.33265,0.0946 0.50541,0.11146 0.71665,0.07 1.52938,-0.24655 2.21001,-0.0258 0.72045,0.23376 0.0799,0.24263 0.81264,0.55734 0.61945,0.26603 1.12011,0.34935 1.78386,0.20577 1.06542,-0.23044 1.61111,-1.00996 2.50732,-1.48334 0.27227,-0.14383 0.59411,-0.2012 0.89193,-0.30011 0.0292,-0.01 0.11836,-0.0158 0.0892,-0.0258 -0.1164,-0.0395 -0.24446,-0.0458 -0.36668,-0.0686"
         id="path11650" />
      <g
         id="g11733"
         inkscape:label="tongue"
         transform="matrix(0.96614236,0,0.11774869,1.0005277,-6.6398504,0.07664757)">
        <path
           style="fill:#e88181;fill-opacity:1;stroke:#000000;stroke-width:0.423333;stroke-linecap:round;stroke-dasharray:none;stroke-opacity:1"
           d="m 113.09243,111.24771 c 0.0517,-0.12351 0.0586,-0.27771 0.15511,-0.37053 0.32262,-0.31036 2.48061,-1.25186 2.87817,-1.43903 0.76387,-0.35962 2.63245,-1.34347 3.50723,-0.73244 0.56672,0.39585 0.48161,0.82285 0.35331,1.38733 -0.018,0.0793 -0.18675,0.14932 -0.12926,0.20681 0.0562,0.0562 0.0954,-0.12857 0.15511,-0.18096 0.27529,-0.24147 0.62312,-0.46382 1.01684,-0.43947 0.3438,0.0213 0.67725,0.15076 0.99098,0.29298 1.68668,0.7646 3.6704,1.67084 3.75714,3.8173 0.0686,1.69814 -1.65734,3.67174 -2.72306,4.81687 -1.11139,1.19421 -2.53529,2.58241 -4.02427,3.30029 -1.238,0.59686 -3.09359,0.38431 -4.21385,-0.37053 -0.40997,-0.27624 -1.50447,-1.39775 -1.82686,-1.93881 -0.91232,-1.53111 -1.16614,-3.35964 -0.49119,-5.03229 0.70303,-1.74221 1.88022,-3.0805 3.23148,-4.33432"
           id="path11654" />
        <path
           style="fill:#e88181;fill-opacity:1;stroke:#000000;stroke-width:0.423333;stroke-linecap:round;stroke-dasharray:none;stroke-opacity:1"
           d="m 120.17583,112.66088 c 0.4299,1.65175 0.14346,2.54038 -0.52566,4.08443 -0.34573,0.79782 -0.85934,1.5546 -1.11162,2.39551"
           id="path11729" />
      </g>
    </g>
    <g
       id="g12251"
       inkscape:label="mustache"
       transform="translate(0.79194737,-0.26397009)">
      <path
         style="fill:none;fill-opacity:1;stroke:#000000;stroke-width:0.423333;stroke-linecap:round;stroke-dasharray:none;stroke-opacity:1"
         d="m 110.96647,88.485003 c -0.40548,0.495572 -0.0396,0.06684 -0.80558,0.83276 -0.79713,0.797094 -1.49639,1.645285 -2.15002,2.563598 -0.15291,0.214834 -0.30079,0.433255 -0.44633,0.653145 -0.0231,0.03493 -0.0719,0.144526 -0.0381,0.119745 0.97732,-0.71714 1.90974,-1.497018 2.85218,-2.258795 0.0769,-0.06215 0.66239,-0.525624 0.81647,-0.664033 0.11933,-0.107196 0.22644,-0.227769 0.34836,-0.332015 0.007,-0.0063 0.032,0.0024 0.0272,0.01087 -0.37113,0.662313 -0.79679,1.292998 -1.17026,1.953993 -0.36107,0.63903 -0.71563,1.28192 -1.05596,1.932226 -0.15205,0.290523 -0.37515,0.752308 -0.46811,1.110345 -0.0561,0.215998 -0.0191,0.376822 0.049,0.32113 0.40416,-0.33066 0.74918,-0.727647 1.12128,-1.094018 0.73395,-0.722664 1.00345,-1.030189 1.72546,-1.66008 0.0604,-0.05272 0.51043,-0.413301 0.56608,-0.402773 0.0555,0.0105 0.008,0.117951 -0.0163,0.16873 -0.12586,0.25785 -0.27393,0.504913 -0.43001,0.745675 -0.31235,0.481817 -0.63545,0.957038 -0.97431,1.420593 -0.14971,0.20479 -0.33141,0.384302 -0.48988,0.582388 -0.0233,0.02917 -0.0902,0.108783 -0.0544,0.09797 0.10663,-0.03224 0.19449,-0.108923 0.28848,-0.16873 0.30526,-0.194249 0.60835,-0.391969 0.909,-0.593275 0.52855,-0.353888 1.0467,-0.723267 1.5785,-1.072248 0.1652,-0.108407 0.33383,-0.213188 0.51165,-0.299357 0.0602,-0.02918 0.18198,-0.108979 0.19595,-0.04354 0.10647,0.498687 -0.65671,1.465649 -0.76748,1.627421 -0.28558,0.417065 -0.60213,0.812093 -0.90899,1.213763 -0.0645,0.08436 -0.79761,0.953677 -0.92533,1.26275 -0.0298,0.07212 -0.0679,0.187224 -0.005,0.234045 0.49984,0.374864 1.03461,0.0061 1.48596,-0.239488 0.85226,-0.46378 1.34136,-0.914132 1.98129,-1.654638 0.16703,-0.193275 0.27309,-0.438697 0.36469,-0.674917 0.007,-0.01765 0.0255,-0.07099 0.0163,-0.05443 -0.45837,0.825019 -0.76368,1.829409 -1.05052,2.705114 -0.0146,0.04444 -0.19209,0.648983 -0.2014,0.838202 -0.001,0.02865 0.005,0.0995 0.0272,0.08164 0.72901,-0.579877 1.1599,-1.490311 1.769,-2.182596 0.25694,-0.29202 0.52862,-0.461973 0.5933,-0.353785 0.28976,0.484664 -0.21414,1.158695 -0.39735,1.485905 -0.16743,0.299051 -0.3645,0.580634 -0.55519,0.865418 -0.29029,0.433538 -0.50626,0.633616 -0.46266,0.60416 0.14361,-0.09703 0.25345,-0.236466 0.38101,-0.353787 0.17642,-0.162245 1.72052,-1.979094 2.65079,-2.024751 0.0974,-0.0048 0.10709,0.181145 0.0925,0.277585 -0.10612,0.703041 -0.48988,1.330217 -0.81101,1.943108 -0.15222,0.290507 -0.32205,0.571773 -0.46811,0.865421 -0.0269,0.054 -0.0573,0.114434 -0.049,0.174169 0.0199,0.143061 0.27765,-0.100957 0.38646,-0.195942 0.24847,-0.216913 0.48145,-0.451001 0.71849,-0.68036 0.0911,-0.08817 1.29131,-1.378696 1.81255,-1.654636 0.31941,-0.169095 0.31977,0.201243 0.29392,0.419103 -0.10741,0.905322 -0.37741,1.785493 -0.50076,2.688781 -0.007,0.05441 -0.008,0.116863 0.0218,0.16329 0.12314,0.194961 0.42326,-0.203176 0.58786,-0.364675 0.54334,-0.53312 0.77842,-0.870448 1.29545,-1.415151 0.12993,-0.136887 0.49406,-0.546338 0.54431,-0.185057 0.079,0.568391 -0.63558,1.845971 -0.40823,2.340441 0.0417,0.0907 0.0816,0.22076 0.17962,0.23948 0.23622,0.0451 1.54813,-1.292985 1.76356,-1.436916 0.13645,-0.09116 0.4196,-0.309163 0.46811,-0.1524 -0.0405,0.597374 -0.20532,2.076276 0.005,2.683336 0.0461,0.13282 0.26665,0.16032 0.40279,0.12519 0.80402,-0.20748 1.47119,-1.05503 1.92141,-1.698178"
         id="path12187" />
      <path
         style="fill:none;fill-opacity:1;stroke:#000000;stroke-width:0.423333;stroke-linecap:round;stroke-dasharray:none;stroke-opacity:1"
         d="m 111.97344,90.841771 c -1.1606,1.102529 -0.87579,0.808733 -2.68344,3.505215 -0.04,0.05968 0.0811,0.16096 0.1524,0.1524 0.41789,-0.05014 1.81854,-1.004215 2.25889,-1.240975 0.0774,-0.04164 0.15703,-0.09578 0.24494,-0.09797 0.0698,-0.0019 0.18775,0.01733 0.1905,0.08709 0.005,0.123277 -0.10115,0.227129 -0.17417,0.326572 -0.27584,0.375648 -0.77952,0.812147 -1.08318,1.115793 -0.0908,0.09079 -0.20525,0.1675 -0.26127,0.28303 -0.0168,0.03471 0.0502,0.08752 0.0871,0.0762 0.41904,-0.128661 0.8224,-0.304892 1.2247,-0.478972 0.40742,-0.1763 0.79719,-0.391369 1.20292,-0.571506 0.0333,-0.01479 0.0926,-0.0435 0.10886,-0.01087 0.0196,0.03922 -0.0248,0.08747 -0.0544,0.119745 -0.17887,0.194561 -0.37622,0.371314 -0.56608,0.555173 -0.0498,0.04823 -0.6546,0.594177 -0.73482,0.75656 -0.0218,0.04425 -0.005,0.147394 0.0436,0.141515 0.17931,-0.02151 0.33593,-0.133027 0.50076,-0.206828 0.80165,-0.358931 1.06778,-0.543792 1.90509,-0.794662 0.40845,-0.122378 0.67059,-0.10712 0.66405,-0.01087 -0.0409,0.602393 -1.34416,1.648897 -1.74179,2.041083 -0.12516,0.123452 -0.27318,0.230889 -0.36468,0.381003 -0.0332,0.05442 -0.0409,0.162372 0.0163,0.190497 0.22263,0.109488 0.97332,-0.335322 1.09951,-0.402772 0.81067,-0.433319 1.65117,-1.10625 2.58547,-1.26819 0.24497,-0.04246 0.11013,0.313147 0.0109,0.51163 -0.14709,0.294169 -0.34825,0.55822 -0.51165,0.843647 -0.26669,0.465836 -0.53352,0.93203 -0.77836,1.409708 -0.0166,0.03229 -0.0341,0.121174 0,0.108858 1.23592,-0.446035 2.06522,-1.595464 3.36383,-1.926783 0.13068,-0.03334 0.31283,-0.06237 0.40279,0.0381 0.0957,0.106858 0.062,0.294037 0.0163,0.429985 -0.46459,1.381281 -0.55811,1.111512 -1.07229,2.193486 -0.0562,0.118364 -0.26558,0.569931 -0.1524,0.6858 0.45044,0.461147 2.72236,-1.585505 3.11345,-1.91045 0.72036,-0.598543 0.47008,-0.02426 0.28848,0.500742 -0.11447,0.330928 -0.25785,0.651695 -0.36469,0.985166 -0.0875,0.273235 -0.19707,0.546586 -0.21772,0.832759 -0.006,0.0878 0.0549,0.23903 0.14152,0.22315 0.22039,-0.0404 0.40316,-0.20595 0.57153,-0.35378 0.17605,-0.154577 1.07696,-1.20996 1.37166,-1.39882 0.62262,-0.399015 0.68895,0.662525 0.75659,0.979721 0.062,0.290703 0.0893,0.441079 0.1524,0.419099 0.4662,-0.162377 0.80301,-0.741941 1.27369,-0.941617 0.75021,-0.318259 -0.11805,0.827889 0.43545,0.821873 0.30817,-0.0034 0.64869,-0.249201 0.87089,-0.397331 0.0673,-0.04488 0.0992,-0.172219 0.17962,-0.163284 0.34947,0.03883 -0.23768,0.107637 0.40279,0 0.13093,-0.02201 0.49517,-0.127524 0.57153,-0.04899 0.0406,0.04181 -0.0255,0.116591 -0.0163,0.174172 0.0185,0.115668 0.0653,0.224973 0.098,0.337461"
         id="path12189" />
      <path
         style="fill:none;fill-opacity:1;stroke:#000000;stroke-width:0.423333;stroke-linecap:round;stroke-dasharray:none;stroke-opacity:1"
         d="m 126.84958,99.279402 c -0.14559,0.612735 -0.38749,1.210338 -0.43677,1.838208 -0.008,0.0976 0.1954,0.0894 0.28798,0.0576 0.13776,-0.0473 0.24143,-0.16704 0.34078,-0.27357 0.27802,-0.29812 0.52808,-0.62117 0.78714,-0.935902 0.10576,-0.128487 0.20126,-0.265205 0.30718,-0.393557 0.0303,-0.03664 0.0546,-0.111985 0.1008,-0.10079 0.0488,0.01183 0.0545,0.08907 0.0576,0.139184 0.0289,0.469145 -0.16581,1.063685 -0.0432,1.502245 0.0178,0.0637 0.04,0.15967 0.10559,0.16798 0.0988,0.0125 0.19504,-0.0588 0.27358,-0.11999 1.30783,-1.01945 0.54218,-0.51225 1.36311,-1.228668 0.19574,-0.170826 0.12449,0.03623 0.0816,0.244778 -0.0281,0.13653 -0.50258,1.32799 0.0816,1.21427 0.43104,-0.0839 0.71086,-0.51866 0.98873,-0.81592 0.10984,-0.11749 -0.0653,0.20776 0.0768,0.16799 0.0815,-0.0228 1.27858,-0.54652 1.5311,-0.52795 0.007,5.3e-4 0.0406,0.42445 0.0432,0.43196 0.11304,0.32439 0.56247,-0.13798 0.63836,-0.0192 0.1234,0.19314 -0.12147,0.46977 0.33117,0.45595 0.46774,-0.0143 0.83349,-0.52558 1.15672,-0.78712 0.0766,-0.062 0.15438,-0.18377 0.24959,-0.15838 0.1155,0.0308 0.14522,0.72069 0.26398,0.86871 0.0539,0.0672 0.13489,0.14113 0.22079,0.13438 0.72431,-0.0569 0.71182,-0.81164 1.12312,-1.10868 0.0968,-0.06994 0.22482,0.081 0.33598,0.12479 0.18079,0.0712 0.33485,0.0786 0.52796,0.0624 0.0259,-0.002 0.30095,-0.0754 0.36957,-0.0384 0.2617,0.14092 -0.27825,0.0874 0.19679,0.17279 0.36242,0.0652 1.49081,-0.380854 1.19032,-0.801518"
         id="path12253" />
    </g>
    <g
       id="g12270"
       inkscape:label="sideburns">
      <path
         style="fill:none;fill-opacity:1;stroke:#000000;stroke-width:0.423333;stroke-linecap:round;stroke-dasharray:none;stroke-opacity:1"
         d="m 82.735752,74.930385 c -0.24516,1.568945 -0.02355,1.103286 -0.979133,2.610919 -0.292732,0.461846 -0.631184,0.893114 -0.940739,1.343856 -0.0553,0.08052 -0.217159,0.175413 -0.153588,0.249579 0.03954,0.04613 3.614833,-1.909749 3.974129,-2.073381 0.346027,-0.157588 1.084371,-0.511516 1.132724,-0.134382 0.09729,0.758838 -1.813518,2.293647 -2.111857,2.57252 -0.169402,0.158348 -0.353954,0.299921 -0.537562,0.441555 -0.04085,0.03151 -0.184242,0.09008 -0.13439,0.07679 0.341697,-0.09111 4.267132,-2.224051 3.647747,-1.113473 -0.636267,1.140841 -2.027875,1.853547 -3.052588,2.610916 -0.147193,0.108789 -0.624567,0.330102 -0.441573,0.326367 0.47485,-0.0097 0.914585,-0.263025 1.382307,-0.345562 2.374691,-0.41905 3.45466,-0.59028 1.305515,1.938991 -0.422584,0.497327 -1.353944,0.661368 -1.459105,1.305457 -0.07281,0.445934 0.853752,-0.356442 1.305515,-0.364755 0.616413,-0.01135 1.375505,-0.115996 1.823871,0.307163 0.325215,0.30693 -0.435595,2.185524 -0.614355,3.052471 -0.134332,0.651486 -0.179189,1.31826 -0.268782,1.977388"
         id="path12256" />
      <path
         style="fill:none;fill-opacity:1;stroke:#000000;stroke-width:0.423333;stroke-linecap:round;stroke-dasharray:none;stroke-opacity:1"
         d="m 86.479495,72.79941 c 0.319979,-0.377558 1.337496,-0.812699 0.959935,-1.132676 -0.377558,-0.319979 -0.561358,0.839293 -0.959935,1.132676 -0.541641,0.398695 -1.243557,0.531521 -1.804675,0.902303 -0.541464,0.357799 -0.992116,0.837155 -1.478301,1.267071 -0.288317,0.25495 -0.610703,0.481579 -0.844741,0.787117 -0.251147,0.327872 0.827358,-0.112157 1.209517,-0.268774 0.207139,-0.08489 4.994981,-2.13668 5.106852,-2.034982 0.133345,0.121219 -0.05989,0.364413 -0.153585,0.518343 -1.09532,1.799389 -2.711495,3.279275 -4.223716,4.722698 -0.170339,0.162587 -0.562427,0.248624 -0.518366,0.479944 0.03743,0.196498 0.401217,-0.02782 0.595159,-0.07679 1.447932,-0.36562 2.81959,-1.00661 4.262109,-1.382247 0.167672,-0.04366 0.59831,-0.192119 0.518372,-0.0384 -0.591495,1.137441 -3.029961,2.355313 -4.089326,3.033279 -0.296019,0.189444 -0.638598,0.323516 -0.883139,0.575934 -0.06739,0.06956 0.19201,0.05136 0.28798,0.03839 0.381833,-0.0516 0.748001,-0.209172 1.132721,-0.230375 0.833713,-0.04595 1.773674,-0.0917 2.035061,0.979101 0.27413,1.123005 -0.797848,3.256497 -0.902332,4.069964 -0.0716,0.557429 0.153588,1.113477 0.230383,1.670216"
         id="path12258" />
      <path
         style="fill:none;fill-opacity:1;stroke:#000000;stroke-width:0.423333;stroke-linecap:round;stroke-dasharray:none;stroke-opacity:1"
         d="m 86.210713,74.028082 c -1.168321,0.947023 -2.042893,2.179995 -3.167785,3.167658 -0.06541,0.05743 -0.225494,0.06773 -0.211182,0.153588 0.04565,0.27391 3.125139,-1.700191 3.359774,-1.843006 0.14442,-0.0879 0.530175,-0.393559 0.441563,-0.24957 -0.365638,0.594148 -2.698469,2.063739 -3.263773,2.457341 -0.381653,0.265732 -0.768437,0.524028 -1.151924,0.787106 -0.166878,0.114483 -0.662832,0.226545 -0.499166,0.345573 0.198366,0.144264 0.476618,-0.117618 0.710351,-0.191985 0.592328,-0.188462 3.734409,-1.409374 4.166121,-1.151874 0.23658,0.14111 0.09318,0.583499 -0.0384,0.825505 -0.670602,1.233379 -2.337284,1.888551 -2.879807,3.20606 -0.264149,0.641482 0.895694,0.460811 0.940737,0.479954 0.29342,0.124696 0.499165,0.396753 0.74875,0.59513"
         id="path12262" />
      <path
         style="fill:none;fill-opacity:1;stroke:#000000;stroke-width:0.423333;stroke-linecap:round;stroke-dasharray:none;stroke-opacity:1"
         d="m 91.355965,68.537473 c -0.729549,0.966295 -1.457728,1.933628 -2.18865,2.898886 -0.446598,0.589777 -0.90715,1.169111 -1.343906,1.766218 -2.721451,3.720592 0.412721,0.462502 1.267108,-0.42236 0.125728,-0.130215 0.205187,-0.412192 0.38398,-0.383961 0.14552,0.02297 0.03035,0.302813 -0.01921,0.441553 -0.556154,1.557171 -1.634151,2.897772 -2.284643,4.415525 -0.09297,0.216916 -0.102391,0.460756 -0.153585,0.691134"
         id="path12264" />
    </g>
  </g>
</svg>
